# xmcd
#
# Track frame offsets:
#	150
#	12500
#	29226
#	43843
#	63192
#	78505
#	94891
#	113049
#	129139
#	147220
#
# Disc length: 2182 seconds
#
# Revision: 5
# Processed by: cddbd v1.5.2PL0 Copyright (c) Steve Scherf et al.
# Submitted via: EasyCDDAExtractor 12.0.4.1
#
DISCID=8508840a
DTITLE=อ้น ศรีพรรณ - อ้นออกเทป
DYEAR=2003
DGENRE=Progressive Rock
TTITLE0=อ้น..ไม่อ้น
TTITLE1=SuperStar
TTITLE2=รักเธอปานจะดม(ปานเนี่ยใครอ่ะ?)
TTITLE3=นึกไม่ออก
TTITLE4=สดชื่นอย่างแรง
TTITLE5=ไม่เนียน
TTITLE6=เรื่องของฉัน (มันไม่เม้ม)
TTITLE7=คนบุรี-ปากท่อ
TTITLE8=เซ่อ
TTITLE9=เมื่อไรอ่ะ?
EXTD=
EXTT0=
EXTT1=
EXTT2=
EXTT3=
EXTT4=
EXTT5=
EXTT6=
EXTT7=
EXTT8=
EXTT9=
PLAYORDER=
